# xmcd
#
# Track frame offsets:
#	150
#	18187
#	39774
#	60060
#	77629
#	96316
#	99874
#	116661
#	138217
#	160188
#	176360
#	191427
#	208804
#	212251
#	231581
#
# Disc length: 3290 seconds
#
# Revision: 0
# Processed by: cddbd v1.5.2PL0 Copyright (c) Steve Scherf et al.
# Submitted via: dBpowerAMP V4.0
#
DISCID=b10cd80f
DTITLE=sarah connor - key to my soul
DYEAR=1900
DGENRE=
TTITLE0=music is the key
TTITLE1=love is colour blind
TTITLE2=just once last dance
TTITLE3=my intuition
TTITLE4=daddy's eyes
TTITLE5=whatcha wearing
TTITLE6=hasta la vista
TTITLE7=i'm gonna found you
TTITLE8=when two become
TTITLE9=are tiy ready to ride
TTITLE10=for the people
TTITLE11=i want some of that
TTITLE12=at the station
TTITLE13=every moment of my life
TTITLE14=turn of the lights
EXTD=
EXTT0=
EXTT1=
EXTT2=
EXTT3=
EXTT4=
EXTT5=
EXTT6=
EXTT7=
EXTT8=
EXTT9=
EXTT10=
EXTT11=
EXTT12=
EXTT13=
EXTT14=
PLAYORDER=
